<!DOCTYPE svg PUBLIC "-//W3C//DTD SVG 1.1//EN" "http://www.w3.org/Graphics/SVG/1.1/DTD/svg11.dtd">
<!-- Uploaded to: SVG Repo, www.svgrepo.com, Transformed by: SVG Repo Mixer Tools -->
<svg fill="#ffffff" width="800px" height="800px" viewBox="0 0 64 64" style="fill-rule:evenodd;clip-rule:evenodd;stroke-linejoin:round;stroke-miterlimit:2;" version="1.1" xml:space="preserve" xmlns="http://www.w3.org/2000/svg" xmlns:serif="http://www.serif.com/" xmlns:xlink="http://www.w3.org/1999/xlink" stroke="#ffffff">
<g id="SVGRepo_bgCarrier" stroke-width="0"/>
<g id="SVGRepo_tracerCarrier" stroke-linecap="round" stroke-linejoin="round"/>
<g id="SVGRepo_iconCarrier"> <g id="Expanded"> <path d="M4,61l56,-0c0.552,-0 1,-0.448 1,-1l0,-40c0,-0.359 -0.192,-0.69 -0.504,-0.868l-7.496,-4.284l0,-8.848c0,-0.552 -0.448,-1 -1,-1l-9,-0c-0.552,-0 -1,0.448 -1,1l0,2.563l-9.504,-5.431c-0.307,-0.176 -0.685,-0.176 -0.992,-0l-28,16c-0.312,0.178 -0.504,0.509 -0.504,0.868l-0,40c0,0.552 0.448,1 1,1Zm4,-2l-0,-34.857l-3,-0l-0,34.857l3,-0Zm2,-35.277l-0,35.277l11,-0l-0,-12.011l-3.519,-2.737c-0.528,0.466 -1.222,0.748 -1.981,0.748c-1.656,0 -3,-1.344 -3,-3c-0,-1.656 1.344,-3 3,-3c1.656,-0 3,1.344 3,3c0,0.164 -0.013,0.324 -0.038,0.481l4.152,3.23c0.244,0.189 0.386,0.48 0.386,0.789l0,12.5l3,-0l-0,-22.586l-2.707,-2.707c-0.391,0.188 -0.83,0.293 -1.293,0.293c-1.656,0 -3,-1.344 -3,-3c0,-1.656 1.344,-3 3,-3c1.656,0 3,1.344 3,3c0,0.463 -0.105,0.902 -0.293,1.293l3,3c0.188,0.187 0.293,0.442 0.293,0.707l0,23l3,-0l0,-29.171c-1.165,-0.412 -2,-1.524 -2,-2.829c-0,-1.656 1.344,-3 3,-3c1.656,0 3,1.344 3,3c0,1.305 -0.835,2.417 -2,2.829l0,29.171l3,-0l0,-23c0,-0.265 0.105,-0.52 0.293,-0.707l3,-3c-0.188,-0.391 -0.293,-0.83 -0.293,-1.293c-0,-1.656 1.344,-3 3,-3c1.656,0 3,1.344 3,3c0,1.656 -1.344,3 -3,3c-0.463,0 -0.902,-0.105 -1.293,-0.293l-2.707,2.707l0,22.586l3,-0l-0,-12.5c0,-0.309 0.142,-0.6 0.386,-0.789l4.152,-3.23c-0.025,-0.157 -0.038,-0.317 -0.038,-0.481c-0,-1.656 1.344,-3 3,-3c1.656,0 3,1.344 3,3c-0,1.656 -1.344,3 -3,3c-0.759,0 -1.453,-0.282 -1.981,-0.748l-3.519,2.737l-0,12.011l11,-0l-0,-35.277l-22,-12.571l-22,12.571Zm49,0.42l-3,-0l-0,34.857l3,-0l-0,-34.857Zm-43.5,16.857c0.552,-0 1,0.448 1,1c0,0.552 -0.448,1 -1,1c-0.552,0 -1,-0.448 -1,-1c-0,-0.552 0.448,-1 1,-1Zm33,-0c0.552,-0 1,0.448 1,1c-0,0.552 -0.448,1 -1,1c-0.552,0 -1,-0.448 -1,-1c-0,-0.552 0.448,-1 1,-1Zm-26.5,-11c0.552,0 1,0.448 1,1c0,0.552 -0.448,1 -1,1c-0.552,0 -1,-0.448 -1,-1c-0,-0.552 0.448,-1 1,-1Zm20,0c0.552,0 1,0.448 1,1c-0,0.552 -0.448,1 -1,1c-0.552,0 -1,-0.448 -1,-1c-0,-0.552 0.448,-1 1,-1Zm-10,-4c0.552,-0 1,0.448 1,1c-0,0.552 -0.448,1 -1,1c-0.552,0 -1,-0.448 -1,-1c-0,-0.552 0.448,-1 1,-1Zm12,-16.295l1.496,0.855c0.479,0.274 0.646,0.886 0.372,1.365c-0.274,0.479 -0.885,0.646 -1.364,0.372c-0,-0 -12.504,-7.145 -12.504,-7.145c-0,-0 -27,15.428 -27,15.428l-0,1.563l3.734,-0l22.77,-13.011c0.307,-0.176 0.685,-0.176 0.992,-0c0,-0 22.77,13.011 22.77,13.011l3.734,-0l-0,-1.563l-7.496,-4.283c-0.389,-0.222 -0.572,-0.667 -0.481,-1.083c-0.015,-0.069 -0.023,-0.14 -0.023,-0.214c0,0 0,-8 0,-8c0,0 -7,0 -7,-0l0,2.705Z"/> </g> </g>
</svg>